{"title":"Valley Of Bones (2018) Movie HDRip x264 AC3 by Full4movies","magnet":"magnet:?xt=urn:btih:5e925cada8e83dc5426b87b8af402eeb96e9da86&dn=Valley+Of+Bones+%282018%29+Movie+HDRip+x264+AC3+by+Full4movies&tr=udp%3A%2F%2Ftracker.leechers-paradise.org%3A6969&tr=udp%3A%2F%2Fzer0day.ch%3A1337&tr=udp%3A%2F%2Fopen.demonii.com%3A1337&tr=udp%3A%2F%2Ftracker.coppersurfer.tk%3A6969&tr=udp%3A%2F%2Fexodus.desync.com%3A6969","uploader":"shmasti","categoryP":"video","categoryS":"movies","size":"389229353","seeders":"16","leechers":"14","description":"General\r\nComplete name                  : Valley Of Bones (2018) Movie HDRip x264 AC3 by Full4movies.mp4\r\nFormat                         : MPEG-4\r\nFormat profile                 : Base Media\r\nCodec ID                       : isom (isom/iso2/avc1/mp41)\r\nFile size                      : 371 MiB\r\nDuration                       : 1 h 30 min\r\nOverall bit rate               : 575 kb/s\r\nMovie name                     : Valley Of Bones (2018) - www.Full4movies.co\r\nWriting application            : Lavf57.83.100\r\n\r\nVideo\r\nID                             : 1\r\nFormat                         : AVC\r\nFormat/Info                    : Advanced Video Codec\r\nFormat profile                 : <a href=\"/cdn-cgi/l/email-protection\" class=\"__cf_email__\" data-cfemail=\"3c74555b547c700f120d\">[email&#xA0;protected]</a>\r\nFormat settings, CABAC         : Yes\r\nFormat settings, RefFrames     : 5 frames\r\nCodec ID                       : avc1\r\nCodec ID/Info                  : Advanced Video Coding\r\nDuration                       : 1 h 30 min\r\nSource duration                : 4 min 16 s\r\nBit rate                       : 512 kb/s\r\nWidth                          : 720 pixels\r\nHeight                         : 304 pixels\r\nDisplay aspect ratio           : 2.35:1\r\nFrame rate mode                : Constant\r\nFrame rate                     : 23.976 FPS\r\nColor space                    : YUV\r\nChroma subsampling             : 4:2:0\r\nBit depth                      : 8 bits\r\nScan type                      : Progressive\r\nBits/(Pixel*Frame)             : 0.098\r\nStream size                    : 327 MiB (88%)\r\nSource stream size             : 327 MiB (88%)\r\nWriting library                : x264 core 148 r2643 5c65704\r\nmdhd_Duration                  : 5410735\r\n\r\nAudio\r\nID                             : 2\r\nFormat                         : AAC\r\nFormat/Info                    : Advanced Audio Codec\r\nFormat profile                 : LC\r\nCodec ID                       : 40\r\nDuration                       : 1 h 30 min\r\nBit rate mode                  : Constant\r\nBit rate                       : 64.7 kb/s\r\nChannel(s)                     : 2 channels\r\nChannel positions              : Front: L R\r\nSampling rate                  : 48.0 kHz\r\nFrame rate                     : 46.875 FPS (1024 SPF)\r\nCompression mode               : Lossy\r\nStream size                    : 41.7 MiB (11%)\r\nDefault                        : Yes\r\nAlternate group                : 1","last_updated":"2018-04-10T16:00:00.836Z","parsed":{"xt":"urn:btih:5e925cada8e83dc5426b87b8af402eeb96e9da86","dn":"Valley Of Bones (2018) Movie HDRip x264 AC3 by Full4movies","tr":["udp://exodus.desync.com:6969","udp://open.demonii.com:1337","udp://tracker.coppersurfer.tk:6969","udp://tracker.leechers-paradise.org:6969","udp://zer0day.ch:1337"],"infoHash":"5e925cada8e83dc5426b87b8af402eeb96e9da86","infoHashBuffer":{"type":"Buffer","data":[94,146,92,173,168,232,61,197,66,107,135,184,175,64,46,235,150,233,218,134]},"name":"Valley Of Bones (2018) Movie HDRip x264 AC3 by Full4movies","announce":["udp://exodus.desync.com:6969","udp://open.demonii.com:1337","udp://tracker.coppersurfer.tk:6969","udp://tracker.leechers-paradise.org:6969","udp://zer0day.ch:1337"],"urlList":[]}}